<?xml version="1.0" standalone="no"?>
<!DOCTYPE svg PUBLIC "-//W3C//DTD SVG 20010904//EN"
 "http://www.w3.org/TR/2001/REC-SVG-20010904/DTD/svg10.dtd">
<svg version="1.0" xmlns="http://www.w3.org/2000/svg"
 width="259.000000pt" height="259.000000pt" viewBox="0 0 259.000000 259.000000"
 preserveAspectRatio="xMidYMid meet">
<metadata>
Created by potrace 1.11, written by Peter Selinger 2001-2013
</metadata>
<g transform="translate(0.000000,259.000000) scale(0.100000,-0.100000)"
fill="#000000" stroke="none">
<path d="M1208 2454 c-2 -1 -41 -8 -88 -14 -98 -13 -185 -35 -238 -58 -20 -8
-39 -16 -42 -17 -3 0 -32 -14 -65 -29 -194 -90 -398 -278 -497 -456 -69 -123
-121 -249 -134 -325 -2 -16 -10 -58 -18 -92 -12 -61 -14 -293 -2 -360 12 -69
49 -208 57 -217 5 -6 9 -16 9 -23 0 -32 108 -230 147 -271 7 -7 13 -17 13 -21
0 -16 178 -192 242 -239 60 -44 255 -149 290 -156 7 -2 20 -6 28 -9 75 -31
268 -61 385 -61 97 1 237 19 268 35 9 5 17 8 17 5 0 -3 24 3 53 13 28 10 55
19 60 19 26 4 173 81 241 126 131 88 208 164 333 331 41 54 110 203 138 297
40 132 50 205 49 358 -1 149 -7 193 -46 325 -33 111 -87 224 -156 330 -54 82
-191 223 -277 286 -104 75 -291 163 -395 184 -8 2 -15 4 -15 5 0 12 -346 45
-357 34z m145 -423 c35 -2 15 -19 -60 -51 -43 -18 -85 -40 -94 -49 -9 -9 -38
-78 -64 -154 -27 -76 -52 -140 -57 -143 -9 -6 -38 22 -98 93 -33 38 -43 41
-142 44 -45 1 -89 4 -95 6 -28 11 -9 41 58 93 109 85 244 144 356 155 25 3 48
7 50 8 3 3 97 2 146 -2z m237 -64 c36 -16 85 -43 110 -60 64 -42 180 -162 223
-229 36 -58 56 -108 42 -108 -9 0 -74 47 -90 64 -14 15 -68 43 -80 41 -45 -5
-133 -21 -201 -36 -58 -13 -104 -6 -104 16 0 8 9 38 21 67 22 57 27 111 11
131 -22 27 -73 138 -67 147 8 14 60 1 135 -33z m-915 -329 c-4 -51 -9 -96 -11
-100 -5 -8 71 -103 174 -216 12 -14 22 -31 22 -38 0 -20 -3 -21 -110 -39 -25
-4 -52 -11 -61 -16 -9 -4 -40 -49 -70 -98 -30 -50 -59 -91 -64 -91 -32 0 -55
260 -33 370 20 103 68 220 120 293 34 47 40 34 33 -65z m1331 -156 c29 -18 42
-264 19 -371 -21 -97 -98 -268 -127 -279 -4 -2 -6 -8 -2 -13 3 -5 -2 -9 -10
-9 -12 0 -14 8 -11 33 3 17 7 66 11 107 l5 75 -44 50 c-117 131 -147 169 -147
186 0 17 22 24 130 45 39 7 70 30 70 51 0 7 5 13 10 13 6 0 10 4 10 9 0 11 63
111 70 111 3 0 10 -4 16 -8z m-1375 -530 c122 -82 124 -83 154 -78 17 3 44 8
60 11 17 2 41 7 55 10 79 16 150 26 163 23 13 -2 10 -18 -14 -93 l-29 -90 26
-50 c14 -27 34 -63 43 -80 10 -16 16 -33 14 -37 -2 -5 1 -8 6 -8 18 0 12 -28
-6 -33 -23 -5 -133 35 -203 75 -117 65 -218 166 -289 286 -46 78 -38 104 20
64z m904 -89 c18 -21 41 -49 52 -61 17 -22 28 -24 133 -29 63 -3 117 -8 120
-10 6 -6 -129 -133 -142 -133 -5 0 -25 -12 -43 -26 -19 -14 -36 -25 -40 -24
-3 0 -24 -8 -48 -18 -115 -51 -387 -79 -387 -41 0 9 58 38 137 68 43 17 57 36
78 101 42 130 77 210 92 210 8 0 30 -17 48 -37z"/>
</g>
</svg>
